PathFileType	4	(x/y/z)	S05_PSF_T05
DataRate	CameraRate	NumFrames	NumMarkers	Units	OrigDataRate	OrigDataStartFrame	OrigNumFrames
240	240	4	50	mm	240	334	445
Frame#	Time	Sternum			R.Acromium			L.Acromium			Top.Head			R.ASIS			L.ASIS			R.PSIS			L.PSIS			R.Great.Tro			L.Great.Tro			R.Iliac.Crest			L.Iliac.Crest			V.Sacral			R.Thigh.Upper.Post			R.Thigh.Lower.Ant			R.Thigh.Lower.Post			R.Thigh.Upper.Ant			R.Knee.Lat			R.Knee.Med			R.Shank.Upper.Post			R.Shank.Lower.Ant			R.Shank.Lower.Post			R.Shank.Upper.Ant			R.Ankle.Lat			R.Ankle.Med			R.Heel.Upper			R.Heel.Med			R.Heel.Lat			R.Toe.Lat			R.Toe.Med			R.Toe.Tip			L.Thigh.Upper.Post			L.Thigh.Lower.Ant			L.Thigh.Lower.Post			L.Thigh.Upper.Ant			L.Knee.Lat			L.Shank.Upper.Post			L.Shank.Lower.Ant			L.Shank.Lower.Post			L.Shank.Upper.Ant			L.Ankle.Lat			L.Ankle.Med			L.Heel.Upper			L.Heel.Med			L.Heel.Lat			L.Toe.Lat			L.Toe.Med			L.Toe.Tip			Cervical.Spine			Back			
		X1	Y1	Z1	X2	Y2	Z2	X3	Y3	Z3	X4	Y4	Z4	X5	Y5	Z5	X6	Y6	Z6	X7	Y7	Z7	X8	Y8	Z8	X9	Y9	Z9	X10	Y10	Z10	X11	Y11	Z11	X12	Y12	Z12	X13	Y13	Z13	X14	Y14	Z14	X15	Y15	Z15	X16	Y16	Z16	X17	Y17	Z17	X18	Y18	Z18	X19	Y19	Z19	X20	Y20	Z20	X21	Y21	Z21	X22	Y22	Z22	X23	Y23	Z23	X24	Y24	Z24	X25	Y25	Z25	X26	Y26	Z26	X27	Y27	Z27	X28	Y28	Z28	X29	Y29	Z29	X30	Y30	Z30	X31	Y31	Z31	X32	Y32	Z32	X33	Y33	Z33	X34	Y34	Z34	X35	Y35	Z35	X36	Y36	Z36	X37	Y37	Z37	X38	Y38	Z38	X39	Y39	Z39	X40	Y40	Z40	X41	Y41	Z41	X42	Y42	Z42	X43	Y43	Z43	X44	Y44	Z44	X45	Y45	Z45	X46	Y46	Z46	X47	Y47	Z47	X48	Y48	Z48	X49	Y49	Z49	X50	Y50	Z50	

334	1.3875	271.65	1266.5	281.47	178.85	1529.4	428.71	163.58	1536.9	103.09	182.54	1836.3	238.28	196.45	1014.7	415.89	220.95	1022.6	166.97	4.3344	1030.9	313.44	13.644	1035	222.19	114.84	930.2	473.51	142.43	940.52	86.231	105.37	1099.9	446.33	131.5	1096.6	111.61	-5.1142	997.79	278.21	207.98	721.15	488.06	277.85	658.55	447.15	215.6	631.58	474.08	266.41	746.78	460.89	216.94	535.61	462.58	234.57	513.76	332.83	6.9038	415.77	441.12	4.2316	324.82	439.63	-46.118	362.53	421.93	58.406	378	457.24	-82.664	261.6	417.99	-51.668	276.33	332.91	-166.15	272.84	353.42	-175.12	243.56	321.59	-182.16	242.55	386.52	-72.296	122.61	442.5	-25.412	119.81	329.93	31.086	99.384	380.9	168.1	702.39	99.714	252.67	636.98	128.16	185.78	610.23	119.5	243.17	725.49	107.82	208.25	521.92	129.33	145.68	320	133.03	213.25	263.09	139.83	144.16	249	153.03	210.84	332.44	125.52	174.37	111.13	166.11	210.95	131.31	250.72	118.67	67.171	223.09	132.84	43.505	255.66	120.07	38.906	195.49	299.04	38.822	131.5	328.84	54.728	248.39	388.24	64.925	190.55	126.08	1573.9	269.94	10.765	1300.6	275.65
335	1.3917	276.42	1267.2	281.16	183.76	1530.1	428.4	168.74	1537.8	102.86	187.85	1836.9	238.28	201.47	1015.6	415.37	225.33	1023	166.43	9.103	1031.5	313.66	18.192	1035.6	222.38	120.41	931.11	473.52	146.25	940.93	86.127	110.42	1100.7	446.13	136.04	1097.2	111.41	-0.36589	998.38	278.47	215.75	722.89	487.79	286.08	661.02	446.44	224.25	633.39	473.73	273.68	749.14	460.2	226.4	537.3	461.93	244	515.77	332.13	17.582	415.1	439.89	15.946	324.16	438.94	-34.733	361.16	420.8	69.424	378.07	456.44	-70.017	259.84	417.18	-38.909	274.54	332.13	-153.45	269.64	352.11	-161.89	239.98	320.48	-169.18	239.42	385.41	-57.953	121.45	442.82	-10.653	118.19	330.47	45.966	98.849	381.81	170.62	702.7	99.563	254.91	636.78	127.72	187.85	610.43	119.32	245.83	725.38	107.42	209.75	521.91	129.13	146.46	320.22	132.96	213.83	263.09	139.66	144.73	249.23	153	211.67	332.42	125.34	174.53	111.21	166.13	211.18	131.35	250.71	118.55	67.327	223.14	132.78	43.586	255.63	120.09	39.008	195.5	299.08	38.709	131.45	328.93	54.626	248.36	388.35	64.675	190.5	131.05	1574.5	269.64	15.612	1301.3	275.26
336	1.3958	281.2	1267.9	280.85	188.66	1530.8	428.1	173.9	1538.6	102.65	193.14	1837.5	238.3	206.49	1016.5	414.88	229.69	1023.4	165.9	13.866	1032.1	313.88	22.731	1036.1	222.59	125.97	932	473.53	150.05	941.32	86.031	115.46	1101.6	445.93	140.57	1097.7	111.21	4.3804	998.93	278.75	223.46	724.62	487.53	294.21	663.49	445.74	232.82	635.2	473.39	280.89	751.49	459.53	235.75	538.99	461.29	253.34	517.8	331.43	28.239	414.3	438.62	27.695	323.39	438.25	-23.318	359.61	419.64	80.427	378.05	455.64	-57.26	257.89	416.39	-26.031	272.57	331.37	-140.59	266.19	350.81	-148.49	236.16	319.36	-156.04	236.03	384.29	-43.436	120.1	443.14	4.3143	116.45	331.02	61.031	98.222	382.72	173.11	703	99.419	257.13	636.58	127.29	189.89	610.62	119.14	248.46	725.25	107.02	211.22	521.91	128.93	147.23	320.45	132.91	214.41	263.08	139.5	145.3	249.46	152.98	212.47	332.41	125.16	174.69	111.29	166.14	211.42	131.39	250.69	118.43	67.475	223.2	132.7	43.668	255.61	120.11	39.114	195.52	299.12	38.598	131.4	329.02	54.52	248.34	388.45	64.423	190.45	136.02	1575.1	269.35	20.458	1301.9	274.87
337	1.4	285.97	1268.6	280.56	193.57	1531.4	427.81	179.06	1539.4	102.44	198.41	1838	238.34	211.51	1017.3	414.4	234.05	1023.8	165.38	18.624	1032.6	314.1	27.261	1036.7	222.79	131.52	932.86	473.54	153.84	941.69	85.942	120.5	1102.4	445.75	145.09	1098.2	111.03	9.1248	999.44	279.02	231.1	726.35	487.28	302.26	665.94	445.07	241.3	637.02	473.06	288.04	753.8	458.89	244.96	540.68	460.64	262.58	519.82	330.75	38.876	413.36	437.33	39.477	322.49	437.57	-11.873	357.91	418.46	91.415	377.95	454.84	-44.394	255.76	415.61	-13.035	270.42	330.62	-127.59	262.52	349.52	-134.93	232.12	318.25	-142.74	232.4	383.18	-28.739	118.59	443.45	19.491	114.6	331.56	76.278	97.52	383.62	175.59	703.3	99.282	259.33	636.38	126.86	191.91	610.82	118.97	251.07	725.13	106.61	212.66	521.91	128.75	147.98	320.66	132.86	214.97	263.07	139.35	145.86	249.69	152.98	213.25	332.4	124.98	174.85	111.37	166.16	211.65	131.42	250.69	118.33	67.617	223.25	132.62	43.75	255.59	120.13	39.222	195.53	299.16	38.491	131.36	329.1	54.411	248.32	388.56	64.17	190.41	140.98	1575.7	269.08	25.303	1302.5	274.49
